<svg width="75" height="18" viewBox="0 0 75 18" fill="none" xmlns="http://www.w3.org/2000/svg">
<g clip-path="url(#clip0_723_652)">
<path d="M7.5 13C7.5 13.2761 7.72387 13.5 8 13.5C8.27613 13.5 8.5 13.2761 8.5 13V11C8.5 10.7239 8.27613 10.5 8 10.5C7.72387 10.5 7.5 10.7239 7.5 11V13Z" fill="white"/>
<path fill-rule="evenodd" clip-rule="evenodd" d="M8 1.83398C7.52793 1.83398 7.099 1.9692 6.6337 2.19548C6.1839 2.41422 5.66428 2.73671 5.01524 3.13953L3.63752 3.99458C3.02339 4.37572 2.53163 4.68092 2.1526 4.97119C1.7601 5.27178 1.45863 5.57791 1.24087 5.97574C1.02357 6.37273 0.925714 6.79514 0.878794 7.29445C0.833327 7.77832 0.833327 8.37005 0.833334 9.11212V10.1873C0.833327 11.4565 0.833321 12.4584 0.935134 13.2417C1.03958 14.0453 1.25904 14.6941 1.75491 15.2069C2.25305 15.7223 2.88697 15.9525 3.67174 16.0616C4.43233 16.1673 5.40371 16.1673 6.6279 16.1673H9.37207C10.5963 16.1673 11.5677 16.1673 12.3283 16.0616C13.113 15.9525 13.7469 15.7223 14.2451 15.2069C14.7409 14.6941 14.9604 14.0453 15.0649 13.2417C15.1667 12.4584 15.1667 11.4565 15.1667 10.1873V9.11212C15.1667 8.37005 15.1667 7.77832 15.1212 7.29445C15.0743 6.79514 14.9764 6.37273 14.7591 5.97574C14.5414 5.57791 14.2399 5.27178 13.8474 4.97119C13.4684 4.68092 12.9766 4.37573 12.3625 3.99459L10.9847 3.13952C10.3357 2.73671 9.81607 2.41421 9.36627 2.19548C8.901 1.9692 8.47207 1.83398 8 1.83398ZM5.51969 4.0034C6.19686 3.58312 6.673 3.28834 7.071 3.09478C7.4588 2.9062 7.73347 2.83398 8 2.83398C8.26653 2.83398 8.5412 2.9062 8.929 3.09478C9.327 3.28834 9.80313 3.58312 10.4803 4.0034L11.8137 4.8309C12.4542 5.22844 12.9039 5.50822 13.2394 5.76512C13.5658 6.01508 13.7535 6.22136 13.8819 6.45588C14.0108 6.69124 14.086 6.96642 14.1256 7.38801C14.1661 7.81972 14.1667 8.36452 14.1667 9.13658V10.1507C14.1667 11.4646 14.1657 12.4015 14.0732 13.1129C13.9824 13.8115 13.8113 14.2169 13.5261 14.5119C13.2433 14.8045 12.8581 14.9782 12.1905 15.0711C11.5068 15.1662 10.605 15.1673 9.33333 15.1673H6.66667C5.39498 15.1673 4.49322 15.1662 3.80948 15.0711C3.14191 14.9782 2.75676 14.8045 2.47386 14.5119C2.18867 14.2169 2.01761 13.8115 1.92679 13.1129C1.83433 12.4015 1.83333 11.4646 1.83333 10.1507V9.13658C1.83333 8.36452 1.83384 7.81972 1.87441 7.38801C1.91402 6.96642 1.98923 6.69124 2.11806 6.45588C2.24643 6.22136 2.43422 6.01508 2.76061 5.76512C3.09607 5.50822 3.54579 5.22844 4.18635 4.8309L5.51969 4.0034Z" fill="white"/>
</g>
<path d="M41.712 15H40.288V9.672H34.88V15H33.456V3.576H34.88V8.408H40.288V3.576H41.712V15ZM51.5075 10.696C51.5075 11.4107 51.4168 12.0453 51.2355 12.6C51.0648 13.144 50.8142 13.608 50.4835 13.992C50.1528 14.376 49.7528 14.6693 49.2835 14.872C48.8142 15.064 48.2915 15.16 47.7155 15.16C47.1822 15.16 46.6862 15.064 46.2275 14.872C45.7795 14.6693 45.3848 14.376 45.0435 13.992C44.7128 13.608 44.4568 13.144 44.2755 12.6C44.0942 12.0453 44.0035 11.4107 44.0035 10.696C44.0035 9.74667 44.1528 8.94667 44.4515 8.296C44.7608 7.63467 45.1982 7.13333 45.7635 6.792C46.3288 6.44 46.9955 6.264 47.7635 6.264C48.4995 6.264 49.1448 6.44 49.6995 6.792C50.2648 7.13333 50.7075 7.63467 51.0275 8.296C51.3475 8.94667 51.5075 9.74667 51.5075 10.696ZM45.4435 10.696C45.4435 11.368 45.5235 11.9547 45.6835 12.456C45.8435 12.9467 46.0942 13.3253 46.4355 13.592C46.7768 13.8587 47.2142 13.992 47.7475 13.992C48.2808 13.992 48.7182 13.8587 49.0595 13.592C49.4008 13.3253 49.6515 12.9467 49.8115 12.456C49.9822 11.9547 50.0675 11.368 50.0675 10.696C50.0675 10.0133 49.9822 9.432 49.8115 8.952C49.6515 8.472 49.4008 8.104 49.0595 7.848C48.7182 7.58133 48.2755 7.448 47.7315 7.448C46.9315 7.448 46.3502 7.736 45.9875 8.312C45.6248 8.888 45.4435 9.68267 45.4435 10.696ZM62.4885 6.264C63.4058 6.264 64.0885 6.51467 64.5365 7.016C64.9845 7.50667 65.2085 8.30667 65.2085 9.416V15H63.8325V9.48C63.8325 8.808 63.6992 8.30133 63.4325 7.96C63.1765 7.61867 62.7712 7.448 62.2165 7.448C61.4485 7.448 60.8992 7.688 60.5685 8.168C60.2485 8.648 60.0885 9.34667 60.0885 10.264V15H58.6965V9.48C58.6965 9.032 58.6378 8.65867 58.5205 8.36C58.4032 8.05067 58.2272 7.82133 57.9925 7.672C57.7578 7.52267 57.4538 7.448 57.0805 7.448C56.5472 7.448 56.1258 7.57067 55.8165 7.816C55.5072 8.05067 55.2885 8.39733 55.1605 8.856C55.0325 9.31467 54.9685 9.88 54.9685 10.552V15H53.5765V6.424H54.6965L54.9045 7.592H54.9845C55.1552 7.29333 55.3632 7.048 55.6085 6.856C55.8538 6.65333 56.1258 6.504 56.4245 6.408C56.7232 6.312 57.0325 6.264 57.3525 6.264C57.9712 6.264 58.4885 6.38133 58.9045 6.616C59.3205 6.85067 59.6245 7.21333 59.8165 7.704H59.9125C60.1792 7.21333 60.5418 6.85067 61.0005 6.616C61.4698 6.38133 61.9658 6.264 62.4885 6.264ZM70.8219 6.264C71.5152 6.264 72.1125 6.424 72.6139 6.744C73.1152 7.064 73.4992 7.51733 73.7659 8.104C74.0432 8.68 74.1819 9.35733 74.1819 10.136V10.984H68.6779C68.6992 11.9547 68.9285 12.696 69.3659 13.208C69.8032 13.7093 70.4165 13.96 71.2059 13.96C71.7179 13.96 72.1712 13.912 72.5659 13.816C72.9712 13.7093 73.3872 13.56 73.8139 13.368V14.6C73.3979 14.792 72.9872 14.9307 72.5819 15.016C72.1872 15.112 71.7072 15.16 71.1419 15.16C70.3739 15.16 69.6965 14.9947 69.1099 14.664C68.5232 14.3333 68.0645 13.8427 67.7339 13.192C67.4032 12.5307 67.2379 11.7253 67.2379 10.776C67.2379 9.83733 67.3872 9.032 67.6859 8.36C67.9845 7.688 68.4005 7.17067 68.9339 6.808C69.4779 6.44533 70.1072 6.264 70.8219 6.264ZM70.8219 7.416C70.2032 7.416 69.7125 7.63467 69.3499 8.072C68.9872 8.49867 68.7739 9.096 68.7099 9.864H72.7419C72.7419 9.37333 72.6725 8.94667 72.5339 8.584C72.3952 8.22133 72.1819 7.93867 71.8939 7.736C71.6165 7.52267 71.2592 7.416 70.8219 7.416Z" fill="white"/>
<defs>
<clipPath id="clip0_723_652">
<rect width="16" height="16" fill="white" transform="translate(0 1)"/>
</clipPath>
</defs>
</svg>
